# xmcd
#
# Track frame offsets: 
#        150
#        15176
#        25714
#        42269
#        57066
#        72974
#        86132
#        101200
#        115331
#        131866
#
# Disc length: 2015 seconds
#
# Revision: 7
# Processed by: cddbd v1.5.2PL0 Copyright (c) Steve Scherf et al.
# Submitted via: ExactAudioCopyFreeDBPlugin 1.0
#
DISCID=8007dd0a
DTITLE=Toby Keith - 35 MPH Town
DYEAR=2015
DGENRE=Country
TTITLE0=Drunk Americans
TTITLE1=Good Gets Here
TTITLE2=35 MPH Town
TTITLE3=Rum Is The Reason
TTITLE4=What She Left Behind
TTITLE5=10 Foot Pole
TTITLE6=Haggard, Hank and Her
TTITLE7=Toby Keith feat. Jimmy Buffett - Sailboat For Sale
TTITLE8=Every Time I Drink I Fall In Love
TTITLE9=Beautiful Stranger
EXTD=YEAR: 2015
EXTT0=
EXTT1=
EXTT2=
EXTT3=
EXTT4=
EXTT5=
EXTT6=
EXTT7=
EXTT8=
EXTT9=
PLAYORDER=
